<?xml version="1.0" encoding="utf-8"?>
<!-- Generator: Adobe Illustrator 23.0.6, SVG Export Plug-In . SVG Version: 6.00 Build 0)  -->
<svg version="1.1" id="Layer_1" xmlns="http://www.w3.org/2000/svg" xmlns:xlink="http://www.w3.org/1999/xlink" x="0px" y="0px"
	 viewBox="0 0 356 91" style="enable-background:new 0 0 356 91;" xml:space="preserve">
<style type="text/css">
	.st0{fill:#262439;}
</style>
<path class="st0" d="M4.73,46.01C4.73,22.84,22.28,7.2,44.78,7.2c18.68,0,28.35,10.24,33.3,20.14l-16.65,7.88
	c-2.48-5.96-8.89-10.91-16.65-10.91c-11.7,0-20.36,9.45-20.36,21.71s8.66,21.71,20.36,21.71c7.76,0,14.17-4.95,16.65-10.91
	l16.65,7.88c-4.84,9.67-14.62,20.14-33.3,20.14C22.28,84.83,4.73,69.08,4.73,46.01z"/>
<path class="st0" d="M78.11,56.25c0-15.3,11.14-28.46,29.59-28.46c18.68,0,29.7,13.16,29.7,28.46c0,15.3-11.02,28.58-29.7,28.58
	C89.25,84.83,78.11,71.55,78.11,56.25z M119.63,56.25c0-7.2-4.28-13.16-11.93-13.16c-7.54,0-11.7,5.96-11.7,13.16
	c0,7.31,4.16,13.28,11.7,13.28C115.35,69.53,119.63,63.56,119.63,56.25z"/>
<path class="st0" d="M144.6,64.58c4.05,3.6,12.71,7.2,19.13,7.2c5.17,0,7.31-1.69,7.31-4.05c0-2.81-3.71-3.83-9.34-4.72
	c-9.23-1.58-22.28-3.49-22.28-17.33c0-9.56,8.21-17.89,23.29-17.89c9.11,0,16.88,2.92,22.73,7.2l-6.64,11.48
	c-3.26-3.15-9.45-5.96-15.98-5.96c-4.05,0-6.86,1.35-6.86,3.71c0,2.47,2.92,3.38,8.66,4.39c9.23,1.58,22.95,3.83,22.95,18.23
	c0,10.35-9.11,18-24.75,18c-9.68,0-19.69-3.26-25.43-8.33L144.6,64.58z"/>
<path class="st0" d="M190.73,15.37c0-5.51,4.39-9.9,9.9-9.9s9.9,4.39,9.9,9.9s-4.39,9.9-9.9,9.9S190.73,20.89,190.73,15.37z
	 M191.97,29.14h17.33v54.34h-17.33V29.14z"/>
<path class="st0" d="M216.49,68.85V44.21h-9V29.14h9V14.29h17.21v14.85h11.03v15.08h-11.03v19.8c0,3.15,1.8,5.51,4.84,5.51
	c1.91,0,3.83-0.68,4.39-1.35l3.38,13.05c-2.14,2.03-6.41,3.6-12.83,3.6C222.46,84.83,216.49,79.31,216.49,68.85z"/>
<path class="st0" d="M274.21,27.79C290.3,27.79,302,39.6,302,58.05v3.71h-38.7c1.01,5.06,5.74,9.67,13.84,9.67
	c4.84,0,10.24-1.91,13.28-4.61l7.31,10.8c-5.4,4.84-14.4,7.2-22.73,7.2c-16.76,0-29.7-10.91-29.7-28.58
	C245.29,40.5,257.22,27.79,274.21,27.79z M263.07,50.51h22.39c-0.45-3.83-3.26-9.34-11.25-9.34
	C266.67,41.17,263.75,46.57,263.07,50.51z"/>
<path class="st0" d="M308.63,64.58c4.05,3.6,12.71,7.2,19.13,7.2c5.17,0,7.31-1.69,7.31-4.05c0-2.81-3.71-3.83-9.34-4.72
	c-9.23-1.58-22.28-3.49-22.28-17.33c0-9.56,8.21-17.89,23.29-17.89c9.11,0,16.88,2.92,22.73,7.2l-6.64,11.48
	c-3.26-3.15-9.45-5.96-15.98-5.96c-4.05,0-6.86,1.35-6.86,3.71c0,2.47,2.92,3.38,8.66,4.39c9.23,1.58,22.95,3.83,22.95,18.23
	c0,10.35-9.11,18-24.75,18c-9.68,0-19.69-3.26-25.43-8.33L308.63,64.58z"/>
</svg>
